<svg width="40" height="40" viewBox="0 0 40 40" fill="none" xmlns="http://www.w3.org/2000/svg">
    <!-- 背景 - 圆角矩形 -->
    <rect x="2" y="2" width="36" height="36" rx="8" fill="#4285F4"/>
    
    <!-- 键盘图标设计 -->
    <!-- 键盘主体 -->
    <rect x="11" y="16" width="18" height="12" rx="3" fill="white"/>
    <!-- 按键行 -->
    <!-- 第一行按键 -->
    <rect x="12" y="18" width="3" height="2" rx="0.5" fill="#E8EAED"/>
    <rect x="16" y="18" width="3" height="2" rx="0.5" fill="#E8EAED"/>
    <rect x="20" y="18" width="3" height="2" rx="0.5" fill="#E8EAED"/>
    <rect x="24" y="18" width="3" height="2" rx="0.5" fill="#E8EAED"/>
    <!-- 第二行按键 -->
    <rect x="12" y="21" width="3" height="2" rx="0.5" fill="#E8EAED"/>
    <rect x="16" y="21" width="3" height="2" rx="0.5" fill="#E8EAED"/>
    <rect x="20" y="21" width="3" height="2" rx="0.5" fill="#E8EAED"/>
    <rect x="24" y="21" width="3" height="2" rx="0.5" fill="#E8EAED"/>
    <!-- 第三行按键 -->
    <rect x="12" y="24" width="3" height="2" rx="0.5" fill="#E8EAED"/>
    <rect x="16" y="24" width="7" height="2" rx="0.5" fill="#E8EAED"/>
    <rect x="24" y="24" width="3" height="2" rx="0.5" fill="#E8EAED"/>
</svg>
